<svg width="16" height="17" viewBox="0 0 16 17" fill="none" xmlns="http://www.w3.org/2000/svg">
<path d="M8.0013 11.8346C7.07908 11.8346 6.29297 11.5096 5.64297 10.8596C4.99297 10.2096 4.66797 9.42352 4.66797 8.5013C4.66797 7.57908 4.99297 6.79297 5.64297 6.14297C6.29297 5.49297 7.07908 5.16797 8.0013 5.16797C8.92352 5.16797 9.70963 5.49297 10.3596 6.14297C11.0096 6.79297 11.3346 7.57908 11.3346 8.5013C11.3346 9.42352 11.0096 10.2096 10.3596 10.8596C9.70963 11.5096 8.92352 11.8346 8.0013 11.8346ZM3.33464 9.16797H0.667969V7.83463H3.33464V9.16797ZM15.3346 9.16797H12.668V7.83463H15.3346V9.16797ZM7.33463 3.83464V1.16797H8.66797V3.83464H7.33463ZM7.33463 15.8346V13.168H8.66797V15.8346H7.33463ZM4.26797 5.66797L2.58464 4.0513L3.53464 3.06797L5.13463 4.73464L4.26797 5.66797ZM12.468 13.9346L10.8513 12.2513L11.7346 11.3346L13.418 12.9513L12.468 13.9346ZM10.8346 4.76797L12.4513 3.08464L13.4346 4.03464L11.768 5.63463L10.8346 4.76797ZM2.56797 12.968L4.2513 11.3513L5.16797 12.2346L3.5513 13.918L2.56797 12.968Z" fill="#FF9300"/>
</svg>
