<svg width="30" height="31" viewBox="0 0 30 31" fill="none" xmlns="http://www.w3.org/2000/svg">
<rect y="0.5" width="30" height="30" rx="5" fill="#F6F8FB"/>
<path d="M24.0697 8.73C22.4597 8.57 20.8497 8.45 19.2297 8.36V8.35L19.0097 7.05C18.8597 6.13 18.6397 4.75 16.2997 4.75H13.6797C11.3497 4.75 11.1297 6.07 10.9697 7.04L10.7597 8.32C9.82967 8.38 8.89967 8.44 7.96967 8.53L5.92967 8.73C5.50967 8.77 5.20967 9.14 5.24967 9.55C5.28967 9.96 5.64967 10.26 6.06967 10.22L8.10967 10.02C13.3497 9.5 18.6297 9.7 23.9297 10.23C23.9597 10.23 23.9797 10.23 24.0097 10.23C24.3897 10.23 24.7197 9.94 24.7597 9.55C24.7897 9.14 24.4897 8.77 24.0697 8.73Z" fill="#E74C3C"/>
<path d="M22.2317 11.64C21.9917 11.39 21.6617 11.25 21.3217 11.25H8.6817C8.3417 11.25 8.0017 11.39 7.7717 11.64C7.5417 11.89 7.4117 12.23 7.4317 12.58L8.0517 22.84C8.1617 24.36 8.3017 26.26 11.7917 26.26H18.2117C21.7017 26.26 21.8417 24.37 21.9517 22.84L22.5717 12.59C22.5917 12.23 22.4617 11.89 22.2317 11.64ZM16.6617 21.25H13.3317C12.9217 21.25 12.5817 20.91 12.5817 20.5C12.5817 20.09 12.9217 19.75 13.3317 19.75H16.6617C17.0717 19.75 17.4117 20.09 17.4117 20.5C17.4117 20.91 17.0717 21.25 16.6617 21.25ZM17.5017 17.25H12.5017C12.0917 17.25 11.7517 16.91 11.7517 16.5C11.7517 16.09 12.0917 15.75 12.5017 15.75H17.5017C17.9117 15.75 18.2517 16.09 18.2517 16.5C18.2517 16.91 17.9117 17.25 17.5017 17.25Z" fill="#E74C3C"/>
</svg>
