<svg width="24" height="24" viewBox="0 0 24 24" fill="none" xmlns="http://www.w3.org/2000/svg">
<g clip-path="url(#clip0_1469_140284)">
<path d="M11.9987 5.33337C13.4715 5.33337 14.6654 4.13946 14.6654 2.66669C14.6654 1.19392 13.4715 0 11.9987 0C10.5259 0 9.33203 1.19392 9.33203 2.66669C9.33203 4.13946 10.5259 5.33337 11.9987 5.33337Z" fill="#4F4F4F"/>
<path d="M11.9987 14.6654C13.4715 14.6654 14.6654 13.4715 14.6654 11.9987C14.6654 10.5259 13.4715 9.33203 11.9987 9.33203C10.5259 9.33203 9.33203 10.5259 9.33203 11.9987C9.33203 13.4715 10.5259 14.6654 11.9987 14.6654Z" fill="#4F4F4F"/>
<path d="M11.9987 24.0013C13.4715 24.0013 14.6654 22.8074 14.6654 21.3347C14.6654 19.8619 13.4715 18.668 11.9987 18.668C10.5259 18.668 9.33203 19.8619 9.33203 21.3347C9.33203 22.8074 10.5259 24.0013 11.9987 24.0013Z" fill="#4F4F4F"/>
</g>
<defs>
<clipPath id="clip0_1469_140284">
<rect width="24" height="24" fill="white"/>
</clipPath>
</defs>
</svg>
