<svg width="30" height="31" viewBox="0 0 30 31" fill="none" xmlns="http://www.w3.org/2000/svg">
<rect y="0.5" width="30" height="30" rx="5" fill="#F6F8FB"/>
<path d="M19.19 5.5H10.81C7.17 5.5 5 7.67 5 11.31V19.68C5 23.33 7.17 25.5 10.81 25.5H19.18C22.82 25.5 24.99 23.33 24.99 19.69V11.31C25 7.67 22.83 5.5 19.19 5.5ZM13.95 21.01C13.66 21.3 13.11 21.58 12.71 21.64L10.25 21.99C10.16 22 10.07 22.01 9.98 22.01C9.57 22.01 9.19 21.87 8.92 21.6C8.59 21.27 8.45 20.79 8.53 20.26L8.88 17.8C8.94 17.39 9.21 16.85 9.51 16.56L13.97 12.1C14.05 12.31 14.13 12.52 14.24 12.76C14.34 12.97 14.45 13.19 14.57 13.39C14.67 13.56 14.78 13.72 14.87 13.84C14.98 14.01 15.11 14.17 15.19 14.26C15.24 14.33 15.28 14.38 15.3 14.4C15.55 14.7 15.84 14.98 16.09 15.19C16.16 15.26 16.2 15.3 16.22 15.31C16.37 15.43 16.52 15.55 16.65 15.64C16.81 15.76 16.97 15.87 17.14 15.96C17.34 16.08 17.56 16.19 17.78 16.3C18.01 16.4 18.22 16.49 18.43 16.56L13.95 21.01ZM20.37 14.59L19.45 15.52C19.39 15.58 19.31 15.61 19.23 15.61C19.2 15.61 19.16 15.61 19.14 15.6C17.11 15.02 15.49 13.4 14.91 11.37C14.88 11.26 14.91 11.14 14.99 11.07L15.92 10.14C17.44 8.62 18.89 8.65 20.38 10.14C21.14 10.9 21.51 11.63 21.51 12.39C21.5 13.11 21.13 13.83 20.37 14.59Z" fill="#39973D"/>
</svg>
