<svg width="22" height="22" viewBox="0 0 22 22" fill="none" xmlns="http://www.w3.org/2000/svg">
<path d="M17.5714 6.08656C17.1772 4.0974 15.7014 3.22656 13.6481 3.22656H5.59974C3.17974 3.22656 1.56641 4.43656 1.56641 7.2599V11.9807C1.56641 14.0157 2.40057 15.2074 3.77557 15.7207C3.97724 15.7941 4.19724 15.8582 4.42641 15.8949C4.79307 15.9774 5.18724 16.0141 5.59974 16.0141H13.6572C16.0772 16.0141 17.6906 14.8041 17.6906 11.9807V7.2599C17.6906 6.82906 17.6539 6.44406 17.5714 6.08656ZM5.06807 10.9999C5.06807 11.3757 4.75641 11.6874 4.38057 11.6874C4.00474 11.6874 3.69307 11.3757 3.69307 10.9999V8.2499C3.69307 7.87406 4.00474 7.5624 4.38057 7.5624C4.75641 7.5624 5.06807 7.87406 5.06807 8.2499V10.9999ZM9.62391 12.0449C8.28557 12.0449 7.20391 10.9632 7.20391 9.6249C7.20391 8.28656 8.28557 7.2049 9.62391 7.2049C10.9622 7.2049 12.0439 8.28656 12.0439 9.6249C12.0439 10.9632 10.9622 12.0449 9.62391 12.0449ZM15.5456 10.9999C15.5456 11.3757 15.2339 11.6874 14.8581 11.6874C14.4822 11.6874 14.1706 11.3757 14.1706 10.9999V8.2499C14.1706 7.87406 14.4822 7.5624 14.8581 7.5624C15.2339 7.5624 15.5456 7.87406 15.5456 8.2499V10.9999Z" fill="#39973D"/>
<path d="M20.44 10.0104V14.7312C20.44 17.5546 18.8267 18.7737 16.3975 18.7737H8.34916C7.66166 18.7737 7.04749 18.6729 6.51582 18.4712C6.08499 18.3154 5.70916 18.0863 5.40666 17.7929C5.24166 17.6371 5.36999 17.3896 5.59916 17.3896H13.6475C17.0392 17.3896 19.0558 15.3729 19.0558 11.9904V7.26042C19.0558 7.04042 19.3033 6.90292 19.4592 7.06792C20.0825 7.72792 20.44 8.69042 20.44 10.0104Z" fill="#39973D"/>
</svg>
