<svg width="16" height="17" viewBox="0 0 16 17" fill="none" xmlns="http://www.w3.org/2000/svg">
<path d="M8.73333 15.8333C7.8 15.8333 6.925 15.6556 6.10833 15.3C5.29167 14.9444 4.58056 14.4639 3.975 13.8583C3.36944 13.2528 2.88889 12.5417 2.53333 11.725C2.17778 10.9083 2 10.0333 2 9.1C2 7.47778 2.51667 6.04722 3.55 4.80833C4.58333 3.56944 5.9 2.8 7.5 2.5C7.3 3.6 7.36111 4.675 7.68333 5.725C8.00556 6.775 8.56111 7.69444 9.35 8.48333C10.1389 9.27222 11.0583 9.82778 12.1083 10.15C13.1583 10.4722 14.2333 10.5333 15.3333 10.3333C15.0444 11.9333 14.2778 13.25 13.0333 14.2833C11.7889 15.3167 10.3556 15.8333 8.73333 15.8333Z" fill="white"/>
</svg>
