<svg width="16" height="17" viewBox="0 0 16 17" fill="none" xmlns="http://www.w3.org/2000/svg">
<path d="M7.06536 3.26732C7.06536 3.39398 6.9587 3.50065 6.83203 3.50065H6.0787C4.6387 3.50065 3.46536 4.67398 3.46536 6.11398V12.2673C3.46536 12.394 3.3587 12.5007 3.23203 12.5007H2.76536C1.97203 12.5007 1.33203 11.8607 1.33203 11.0673V3.26732C1.33203 2.47398 1.97203 1.83398 2.76536 1.83398H5.63203C6.42536 1.83398 7.06536 2.47398 7.06536 3.26732Z" fill="#14B8A6"/>
<path d="M14.6669 3.26732V11.0673C14.6669 11.8607 14.0269 12.5007 13.2336 12.5007H12.8136C12.6869 12.5007 12.5803 12.394 12.5803 12.2673V6.11398C12.5803 4.67398 11.4069 3.50065 9.96693 3.50065H9.16693C9.04026 3.50065 8.93359 3.39398 8.93359 3.26732C8.93359 2.47398 9.57359 1.83398 10.3669 1.83398H13.2336C14.0269 1.83398 14.6669 2.47398 14.6669 3.26732Z" fill="#14B8A6"/>
<path d="M9.96484 4.5H6.07818C5.18484 4.5 4.46484 5.22 4.46484 6.11333V13.5533C4.46484 14.4467 5.18484 15.1667 6.07818 15.1667H7.16484C7.35151 15.1667 7.49818 15.02 7.49818 14.8333V13.1667C7.49818 12.8933 7.72484 12.6667 7.99818 12.6667C8.27151 12.6667 8.49818 12.8933 8.49818 13.1667V14.8333C8.49818 15.02 8.64484 15.1667 8.83151 15.1667H9.97151C10.8582 15.1667 11.5782 14.4467 11.5782 13.56V6.11333C11.5782 5.22 10.8582 4.5 9.96484 4.5ZM9.33151 10.3333H6.66484C6.39151 10.3333 6.16484 10.1067 6.16484 9.83333C6.16484 9.56 6.39151 9.33333 6.66484 9.33333H9.33151C9.60484 9.33333 9.83151 9.56 9.83151 9.83333C9.83151 10.1067 9.60484 10.3333 9.33151 10.3333ZM9.33151 8.33333H6.66484C6.39151 8.33333 6.16484 8.10667 6.16484 7.83333C6.16484 7.56 6.39151 7.33333 6.66484 7.33333H9.33151C9.60484 7.33333 9.83151 7.56 9.83151 7.83333C9.83151 8.10667 9.60484 8.33333 9.33151 8.33333Z" fill="#14B8A6"/>
</svg>
