<svg width="13" height="15" viewBox="0 0 13 15" fill="none" xmlns="http://www.w3.org/2000/svg">
<path d="M10.5 0.833984H2.5C1.39333 0.833984 0.5 1.72065 0.5 2.81398V10.0873C0.5 11.1807 1.39333 12.074 2.5 12.074H3.00667C3.53333 12.074 4.04667 12.2807 4.42 12.654L5.56 13.7807C6.08 14.294 6.92 14.294 7.44 13.7807L8.58 12.654C8.95333 12.2807 9.46667 12.074 9.99333 12.074H10.5C11.6067 12.074 12.5 11.1807 12.5 10.0873V2.81398C12.5 1.72065 11.6067 0.833984 10.5 0.833984ZM6.5 3.20065C7.22 3.20065 7.8 3.78732 7.8 4.50065C7.8 5.20732 7.24 5.77398 6.54667 5.80065C6.52 5.80065 6.48 5.80065 6.44667 5.80065C5.74667 5.77398 5.19333 5.20732 5.19333 4.50065C5.2 3.78732 5.78 3.20065 6.5 3.20065ZM8.33333 9.29398C7.32667 9.96732 5.67333 9.96732 4.66667 9.29398C3.78 8.70732 3.78 7.73398 4.66667 7.14065C5.68 6.46732 7.33333 6.46732 8.33333 7.14065C9.22 7.73398 9.22 8.70065 8.33333 9.29398Z" fill="#4F46E5"/>
</svg>
