<svg width="50" height="50" viewBox="0 0 50 50" fill="none" xmlns="http://www.w3.org/2000/svg">
<rect opacity="0.1" width="50" height="50" rx="10" fill="#FF6A00"/>
<path d="M30.588 11.667H19.4146C14.5613 11.667 11.668 14.5603 11.668 19.4137V30.5737C11.668 35.4403 14.5613 38.3337 19.4146 38.3337H30.5746C35.428 38.3337 38.3213 35.4403 38.3213 30.587V19.4137C38.3346 14.5603 35.4413 11.667 30.588 11.667ZM30.0013 30.0003H20.0013C19.4546 30.0003 19.0013 29.547 19.0013 29.0003C19.0013 28.4537 19.4546 28.0003 20.0013 28.0003H30.0013C30.548 28.0003 31.0013 28.4537 31.0013 29.0003C31.0013 29.547 30.548 30.0003 30.0013 30.0003ZM30.0013 22.0003H20.0013C19.4546 22.0003 19.0013 21.547 19.0013 21.0003C19.0013 20.4537 19.4546 20.0003 20.0013 20.0003H30.0013C30.548 20.0003 31.0013 20.4537 31.0013 21.0003C31.0013 21.547 30.548 22.0003 30.0013 22.0003Z" fill="#FF6A00"/>
</svg>
