<svg width="50" height="50" viewBox="0 0 50 50" fill="none" xmlns="http://www.w3.org/2000/svg">
<rect opacity="0.1" width="50" height="50" rx="10" fill="#869FF3"/>
<path d="M22.668 22.373C22.668 23.093 22.868 23.1997 23.3213 23.3597L24.0013 23.5997V21.333H23.6013C23.0946 21.333 22.668 21.7997 22.668 22.373Z" fill="#869FF3"/>
<path d="M26 28.6671H26.4C26.92 28.6671 27.3333 28.2004 27.3333 27.6271C27.3333 26.9071 27.1333 26.8004 26.68 26.6404L26 26.4004V28.6671Z" fill="#869FF3"/>
<path d="M35.108 16.307L32.3746 19.0403C32.1746 19.2403 31.9213 19.3337 31.668 19.3337C31.4146 19.3337 31.1613 19.2403 30.9613 19.0403C30.5746 18.6537 30.5746 18.0137 30.9613 17.627L33.6946 14.8937C31.348 12.8937 28.3213 11.667 25.0013 11.667C17.6413 11.667 11.668 17.6403 11.668 25.0003C11.668 32.3603 17.6413 38.3337 25.0013 38.3337C32.3613 38.3337 38.3346 32.3603 38.3346 25.0003C38.3346 21.6803 37.108 18.6537 35.108 16.307ZM27.3346 24.7603C28.188 25.067 29.3346 25.6803 29.3346 27.6403C29.3346 29.307 28.0146 30.6803 26.4013 30.6803H26.0013V31.0137C26.0013 31.5603 25.548 32.0137 25.0013 32.0137C24.4546 32.0137 24.0013 31.5603 24.0013 31.0137V30.6803H23.8946C22.1213 30.6803 20.668 29.187 20.668 27.347C20.668 26.787 21.1213 26.3337 21.668 26.3337C22.2146 26.3337 22.668 26.787 22.668 27.3337C22.668 28.067 23.2146 28.667 23.8946 28.667H24.0013V25.707L22.668 25.2403C21.8146 24.9337 20.668 24.3203 20.668 22.3603C20.668 20.6937 21.988 19.3203 23.6013 19.3203H24.0013V19.0003C24.0013 18.4537 24.4546 18.0003 25.0013 18.0003C25.548 18.0003 26.0013 18.4537 26.0013 19.0003V19.3337H26.108C27.8813 19.3337 29.3346 20.827 29.3346 22.667C29.3346 23.2137 28.8813 23.667 28.3346 23.667C27.788 23.667 27.3346 23.2137 27.3346 22.667C27.3346 21.9337 26.788 21.3337 26.108 21.3337H26.0013V24.2937L27.3346 24.7603Z" fill="#869FF3"/>
<path d="M39.2533 11.2803C39.1467 11.0403 38.96 10.8403 38.7067 10.7337C38.5867 10.6937 38.4667 10.667 38.3333 10.667H33C32.4533 10.667 32 11.1203 32 11.667C32 12.2137 32.4533 12.667 33 12.667H35.92L33.6933 14.8937C34.2 15.3337 34.6667 15.8003 35.1067 16.307L37.3333 14.0803V17.0003C37.3333 17.547 37.7867 18.0003 38.3333 18.0003C38.88 18.0003 39.3333 17.547 39.3333 17.0003V11.667C39.3333 11.5337 39.3067 11.4137 39.2533 11.2803Z" fill="#869FF3"/>
</svg>
