<svg width="16" height="17" viewBox="0 0 16 17" fill="none" xmlns="http://www.w3.org/2000/svg">
<path d="M7.99875 3.59961C4.81208 3.59961 2.21875 6.19294 2.21875 9.37961C2.21875 12.5663 4.81208 15.1663 7.99875 15.1663C11.1854 15.1663 13.7787 12.5729 13.7787 9.38628C13.7787 6.19961 11.1854 3.59961 7.99875 3.59961ZM8.49875 9.16628C8.49875 9.43961 8.27208 9.66628 7.99875 9.66628C7.72542 9.66628 7.49875 9.43961 7.49875 9.16628V5.83294C7.49875 5.55961 7.72542 5.33294 7.99875 5.33294C8.27208 5.33294 8.49875 5.55961 8.49875 5.83294V9.16628Z" fill="#FFC313"/>
<path d="M9.92708 2.80065H6.07375C5.80708 2.80065 5.59375 2.58732 5.59375 2.32065C5.59375 2.05398 5.80708 1.83398 6.07375 1.83398H9.92708C10.1937 1.83398 10.4071 2.04732 10.4071 2.31398C10.4071 2.58065 10.1937 2.80065 9.92708 2.80065Z" fill="#FFC313"/>
</svg>
