<svg width="19" height="20" viewBox="0 0 19 20" fill="none" xmlns="http://www.w3.org/2000/svg">
<path d="M12.9985 5.50498L5.18908 13.4456C4.93054 13.7309 4.79163 14.1048 4.80111 14.4897C4.81058 14.8746 4.96772 15.2412 5.23999 15.5134C5.51226 15.7857 5.8788 15.9429 6.26373 15.9523C6.64866 15.9618 7.02249 15.8229 7.30783 15.5644L16.6172 6.12373C17.1343 5.55306 17.4121 4.80539 17.3932 4.03553C17.3742 3.26568 17.0599 2.53259 16.5154 1.98806C15.9708 1.44352 15.2378 1.12924 14.4679 1.11028C13.698 1.09133 12.9504 1.36915 12.3797 1.88623L3.07033 11.3269C2.22744 12.1697 1.75391 13.313 1.75391 14.505C1.75391 15.697 2.22744 16.8402 3.07033 17.6831C3.91322 18.526 5.05643 18.9995 6.24845 18.9995C7.44048 18.9995 8.58369 18.526 9.42658 17.6831L17.1235 10.005" stroke="#4F4F4F" stroke-width="2" stroke-linecap="round" stroke-linejoin="round"/>
</svg>
