<svg width="17" height="17" viewBox="0 0 17 17" fill="none" xmlns="http://www.w3.org/2000/svg">
<path d="M5.14398 7.69678C4.9943 7.49427 4.95027 7.23452 5.02071 6.99238L5.78675 4.44332C6.2358 2.94647 7.81191 2.09678 9.30876 2.54584C10.2201 2.81879 10.9333 3.532 11.2062 4.44332L11.9767 6.98798C12.1044 7.41062 11.8666 7.85087 11.444 7.97854C11.3691 8.00056 11.2899 8.01376 11.2151 8.01376H5.78235C5.5314 8.01817 5.29367 7.8949 5.14398 7.69678ZM13.1654 13.7546C13.1654 14.1949 12.8088 14.5515 12.3685 14.5515H4.62889C4.18864 14.5515 3.83203 14.1949 3.83203 13.7546C3.83203 11.1792 5.92323 9.07917 8.4987 9.07917C11.0742 9.07917 13.1654 11.1792 13.1654 13.7546Z" fill="#FE76A8"/>
</svg>
