<svg width="22" height="22" viewBox="0 0 22 22" fill="none" xmlns="http://www.w3.org/2000/svg">
<path d="M17.8748 4.98428C17.7811 4.89054 17.6613 4.84375 17.5156 4.84375H14.8438C14.6666 3.97945 14.3333 3.2292 13.8438 2.59382H17.4842C17.6302 2.59382 17.7498 2.54698 17.8437 2.45345C17.937 2.35976 17.9838 2.23985 17.9838 2.09406V0.499983C17.9838 0.354081 17.937 0.234394 17.8437 0.140593C17.7497 0.0470102 17.6301 0 17.4841 0H4.4843C4.3384 0 4.21871 0.0470102 4.12491 0.140538C4.03139 0.234339 3.98438 0.354027 3.98438 0.499928V2.57801C3.98438 2.7134 4.03385 2.83057 4.13279 2.92952C4.23174 3.02846 4.34891 3.07794 4.4843 3.07794H6.74993C8.9477 3.07794 10.3436 3.6663 10.9372 4.84347H4.4843C4.3384 4.84347 4.21855 4.89026 4.12491 4.98401C4.03139 5.07787 3.98438 5.1975 3.98438 5.3434V6.93726C3.98438 7.08305 4.03117 7.2029 4.12491 7.29643C4.21871 7.39029 4.33862 7.43697 4.4843 7.43697H11.1563C10.9271 8.29136 10.3932 8.94228 9.55456 9.39022C8.71588 9.83821 7.60936 10.0622 6.2343 10.0622H4.4843C4.34891 10.0622 4.23174 10.1117 4.13279 10.2106C4.03379 10.3096 3.98438 10.4268 3.98438 10.5621V12.5467C3.98438 12.6823 4.03117 12.7968 4.12491 12.8905C6.12479 15.0154 8.71861 17.9891 11.9061 21.8123C11.9999 21.9374 12.1301 21.9998 12.2968 21.9998H15.3435C15.5625 21.9998 15.7136 21.9063 15.7967 21.7184C15.9008 21.5309 15.8804 21.3538 15.7341 21.1871C12.6929 17.4579 10.3021 14.6663 8.56248 12.8122C10.3333 12.6039 11.7708 12.0309 12.875 11.0936C13.9791 10.1562 14.6509 8.93719 14.8906 7.43724H17.5156C17.6613 7.43724 17.7812 7.3905 17.8748 7.2967C17.9686 7.20318 18.0156 7.08332 18.0156 6.93753V5.34384C18.0156 5.19777 17.9686 5.07808 17.8748 4.98428Z" fill="#E74C3C"/>
</svg>
