<svg width="50" height="50" viewBox="0 0 50 50" fill="none" xmlns="http://www.w3.org/2000/svg">
<rect opacity="0.1" width="50" height="50" rx="10" fill="#39973D"/>
<path d="M34.0781 17.3333H35.8915C35.6381 16.9733 35.3715 16.64 35.0915 16.3066L34.0781 17.3333Z" fill="#39973D"/>
<path d="M33.6946 14.8938C33.3613 14.6138 33.028 14.3471 32.668 14.0938V15.9071L33.6946 14.8938Z" fill="#39973D"/>
<path d="M35.1047 16.3066L39.0381 12.3733C39.4247 11.9866 39.4247 11.3466 39.0381 10.9599C38.6514 10.5733 38.0114 10.5733 37.6247 10.9599L33.6914 14.8933C34.1981 15.3333 34.6647 15.8133 35.1047 16.3066Z" fill="#39973D"/>
<path d="M32.6664 13C32.6664 12.4533 32.213 12 31.6664 12C31.133 12 30.7064 12.4267 30.6797 12.9467C31.373 13.28 32.0397 13.6533 32.6664 14.0933V13Z" fill="#39973D"/>
<path d="M38.0012 18.333C38.0012 17.7863 37.5479 17.333 37.0012 17.333H35.8945C36.3345 17.9597 36.7212 18.6263 37.0412 19.3197C37.5745 19.293 38.0012 18.8663 38.0012 18.333Z" fill="#39973D"/>
<path d="M26 28.6671H26.4C26.92 28.6671 27.3333 28.2004 27.3333 27.6271C27.3333 26.9071 27.1333 26.8004 26.68 26.6404L26 26.4004V28.6671Z" fill="#39973D"/>
<path d="M37.0546 19.3203C37.0413 19.3203 37.028 19.3337 37.0013 19.3337H31.668C31.5346 19.3337 31.4146 19.307 31.2813 19.2537C31.0413 19.147 30.8413 18.9603 30.7346 18.707C30.6946 18.587 30.668 18.467 30.668 18.3337V13.0003C30.668 12.987 30.6813 12.9737 30.6813 12.947C28.948 12.1337 27.028 11.667 25.0013 11.667C17.6413 11.667 11.668 17.6403 11.668 25.0003C11.668 32.3603 17.6413 38.3337 25.0013 38.3337C32.3613 38.3337 38.3346 32.3603 38.3346 25.0003C38.3346 22.9737 37.868 21.0537 37.0546 19.3203ZM27.3346 24.7603C28.188 25.0537 29.3346 25.6803 29.3346 27.6403C29.3346 29.307 28.0146 30.6803 26.4013 30.6803H26.0013V31.0137C26.0013 31.5603 25.548 32.0137 25.0013 32.0137C24.4546 32.0137 24.0013 31.5603 24.0013 31.0137V30.6803H23.8946C22.1213 30.6803 20.668 29.187 20.668 27.347C20.668 26.787 21.1213 26.3337 21.668 26.3337C22.2146 26.3337 22.668 26.787 22.668 27.3337C22.668 28.067 23.2146 28.667 23.8946 28.667H24.0013V25.707L22.668 25.2403C21.8146 24.947 20.668 24.3203 20.668 22.3603C20.668 20.6937 21.988 19.3203 23.6013 19.3203H24.0013V19.0003C24.0013 18.4537 24.4546 18.0003 25.0013 18.0003C25.548 18.0003 26.0013 18.4537 26.0013 19.0003V19.3337H26.108C27.8813 19.3337 29.3346 20.827 29.3346 22.667C29.3346 23.2137 28.8813 23.667 28.3346 23.667C27.788 23.667 27.3346 23.2137 27.3346 22.667C27.3346 21.9337 26.788 21.3337 26.108 21.3337H26.0013V24.2937L27.3346 24.7603Z" fill="#39973D"/>
<path d="M22.668 22.373C22.668 23.093 22.868 23.1997 23.3213 23.3597L24.0013 23.5997V21.333H23.6013C23.0946 21.333 22.668 21.7997 22.668 22.373Z" fill="#39973D"/>
</svg>
