<svg width="50" height="50" viewBox="0 0 50 50" fill="none" xmlns="http://www.w3.org/2000/svg">
<rect opacity="0.1" width="50" height="50" rx="10" fill="#EB37C3"/>
<path d="M24.0941 13H15.7874C13.1341 13 11.8008 14.3467 11.8008 17.0267V38.3333H19.0008V33.3333C19.0008 32.7867 19.4541 32.3333 20.0008 32.3333C20.5474 32.3333 21.0008 32.7733 21.0008 33.3333V38.3333H28.0674V17.0267C28.0674 14.3467 26.7474 13 24.0941 13ZM23.3341 26H16.7341C16.1874 26 15.7341 25.5467 15.7341 25C15.7341 24.4533 16.1874 24 16.7341 24H23.3341C23.8808 24 24.3341 24.4533 24.3341 25C24.3341 25.5467 23.8808 26 23.3341 26ZM23.3341 21H16.7341C16.1874 21 15.7341 20.5467 15.7341 20C15.7341 19.4533 16.1874 19 16.7341 19H23.3341C23.8808 19 24.3341 19.4533 24.3341 20C24.3341 20.5467 23.8808 21 23.3341 21Z" fill="#EB37C3"/>
<path d="M39.6654 37.3332H36.6387V33.3332C37.9054 32.9198 38.8254 31.7332 38.8254 30.3332V27.6665C38.8254 25.9198 37.3987 24.4932 35.652 24.4932C33.9054 24.4932 32.4787 25.9198 32.4787 27.6665V30.3332C32.4787 31.7198 33.3854 32.8932 34.6254 33.3198V37.3332H10.332C9.78536 37.3332 9.33203 37.7865 9.33203 38.3332C9.33203 38.8798 9.78536 39.3332 10.332 39.3332H35.572C35.5987 39.3332 35.612 39.3465 35.6387 39.3465C35.6654 39.3465 35.6787 39.3332 35.7054 39.3332H39.6654C40.212 39.3332 40.6654 38.8798 40.6654 38.3332C40.6654 37.7865 40.212 37.3332 39.6654 37.3332Z" fill="#EB37C3"/>
</svg>
