<svg width="16" height="17" viewBox="0 0 16 17" fill="none" xmlns="http://www.w3.org/2000/svg">
<path d="M7.5451 2.5H3.39177C2.0651 2.5 1.39844 3.17333 1.39844 4.51333V15.1667H4.99844V12.6667C4.99844 12.3933 5.2251 12.1667 5.49844 12.1667C5.77177 12.1667 5.99844 12.3867 5.99844 12.6667V15.1667H9.53177V4.51333C9.53177 3.17333 8.87177 2.5 7.5451 2.5ZM7.1651 9H3.8651C3.59177 9 3.3651 8.77333 3.3651 8.5C3.3651 8.22667 3.59177 8 3.8651 8H7.1651C7.43844 8 7.6651 8.22667 7.6651 8.5C7.6651 8.77333 7.43844 9 7.1651 9ZM7.1651 6.5H3.8651C3.59177 6.5 3.3651 6.27333 3.3651 6C3.3651 5.72667 3.59177 5.5 3.8651 5.5H7.1651C7.43844 5.5 7.6651 5.72667 7.6651 6C7.6651 6.27333 7.43844 6.5 7.1651 6.5Z" fill="#9333EA"/>
<path d="M15.3346 14.6661H13.8213V12.6661C14.4546 12.4594 14.9146 11.8661 14.9146 11.1661V9.83276C14.9146 8.95943 14.2013 8.24609 13.328 8.24609C12.4546 8.24609 11.7413 8.95943 11.7413 9.83276V11.1661C11.7413 11.8594 12.1946 12.4461 12.8146 12.6594V14.6661H0.667969C0.394635 14.6661 0.167969 14.8928 0.167969 15.1661C0.167969 15.4394 0.394635 15.6661 0.667969 15.6661H13.288C13.3013 15.6661 13.308 15.6728 13.3213 15.6728C13.3346 15.6728 13.3413 15.6661 13.3546 15.6661H15.3346C15.608 15.6661 15.8346 15.4394 15.8346 15.1661C15.8346 14.8928 15.608 14.6661 15.3346 14.6661Z" fill="#9333EA"/>
</svg>
