<svg width="15" height="15" viewBox="0 0 15 15" fill="none" xmlns="http://www.w3.org/2000/svg">
<path d="M13.8726 6.66036L12.9659 5.60703C12.7926 5.40703 12.6526 5.0337 12.6526 4.76703V3.6337C12.6526 2.92703 12.0726 2.34703 11.3659 2.34703H10.2326C9.9726 2.34703 9.5926 2.20703 9.3926 2.0337L8.33927 1.12703C7.87927 0.733698 7.12594 0.733698 6.65927 1.12703L5.6126 2.04036C5.4126 2.20703 5.0326 2.34703 4.7726 2.34703H3.61927C2.9126 2.34703 2.3326 2.92703 2.3326 3.6337V4.7737C2.3326 5.0337 2.1926 5.40703 2.02594 5.60703L1.12594 6.66703C0.739271 7.12703 0.739271 7.8737 1.12594 8.3337L2.02594 9.3937C2.1926 9.5937 2.3326 9.96703 2.3326 10.227V11.367C2.3326 12.0737 2.9126 12.6537 3.61927 12.6537H4.7726C5.0326 12.6537 5.4126 12.7937 5.6126 12.967L6.66594 13.8737C7.12594 14.267 7.87927 14.267 8.34594 13.8737L9.39927 12.967C9.59927 12.7937 9.9726 12.6537 10.2393 12.6537H11.3726C12.0793 12.6537 12.6593 12.0737 12.6593 11.367V10.2337C12.6593 9.9737 12.7993 9.5937 12.9726 9.3937L13.8793 8.34036C14.2659 7.88036 14.2659 7.12036 13.8726 6.66036ZM10.2726 6.24036L7.0526 9.46036C6.95927 9.5537 6.8326 9.60703 6.69927 9.60703C6.56594 9.60703 6.43927 9.5537 6.34594 9.46036L4.7326 7.84703C4.53927 7.6537 4.53927 7.3337 4.7326 7.14036C4.92594 6.94703 5.24594 6.94703 5.43927 7.14036L6.69927 8.40036L9.56594 5.5337C9.75927 5.34036 10.0793 5.34036 10.2726 5.5337C10.4659 5.72703 10.4659 6.04703 10.2726 6.24036Z" fill="#39973D"/>
</svg>
