<svg width="16" height="17" viewBox="0 0 16 17" fill="none" xmlns="http://www.w3.org/2000/svg">
<path d="M14.6655 7.81281V9.18615C14.6655 9.55281 14.3722 9.85281 13.9988 9.86615H12.6922C11.9722 9.86615 11.3122 9.33948 11.2522 8.61948C11.2122 8.19948 11.3722 7.80615 11.6522 7.53281C11.8988 7.27948 12.2388 7.13281 12.6122 7.13281H13.9988C14.3722 7.14615 14.6655 7.44615 14.6655 7.81281Z" fill="#5678E9"/>
<path d="M13.6454 10.8673H12.692C11.4254 10.8673 10.3587 9.91398 10.252 8.70065C10.192 8.00732 10.4454 7.31398 10.952 6.82065C11.3787 6.38065 11.972 6.13398 12.612 6.13398H13.6454C13.8387 6.13398 13.9987 5.97398 13.9787 5.78065C13.832 4.16065 12.7587 3.05398 11.1654 2.86732C11.0054 2.84065 10.8387 2.83398 10.6654 2.83398H4.66536C4.4787 2.83398 4.2987 2.84732 4.12536 2.87398C2.42536 3.08732 1.33203 4.35398 1.33203 6.16732V10.834C1.33203 12.674 2.82536 14.1673 4.66536 14.1673H10.6654C12.532 14.1673 13.8187 13.0007 13.9787 11.2207C13.9987 11.0273 13.8387 10.8673 13.6454 10.8673ZM8.66536 7.00065H4.66536C4.39203 7.00065 4.16536 6.77398 4.16536 6.50065C4.16536 6.22732 4.39203 6.00065 4.66536 6.00065H8.66536C8.9387 6.00065 9.16536 6.22732 9.16536 6.50065C9.16536 6.77398 8.9387 7.00065 8.66536 7.00065Z" fill="#5678E9"/>
</svg>
